<?xml version="1.0" encoding="utf-8"?>
<!-- Generator: Adobe Illustrator 18.1.1, SVG Export Plug-In . SVG Version: 6.00 Build 0)  -->
<!DOCTYPE svg PUBLIC "-//W3C//DTD SVG 1.1//EN" "http://www.w3.org/Graphics/SVG/1.1/DTD/svg11.dtd">
<svg version="1.1" xmlns="http://www.w3.org/2000/svg" xmlns:xlink="http://www.w3.org/1999/xlink" x="0px" y="0px"
	 viewBox="0 0 71.4 64" enable-background="new 0 0 71.4 64" xml:space="preserve">
<g id="she">
</g>
<g id="he">
	<g>
		<path d="M26.7,48.8V26.8c0-2.7-0.5-4.7-1.6-6.1c-1.1-1.3-2.8-2-5.1-2c-1.7,0-3.1,0.3-4.2,0.8c-1.1,0.5-2.1,1.3-2.7,2.4
			c-0.7,1.1-1.2,2.3-1.5,3.9c-0.3,1.5-0.5,3.3-0.5,5.3v17.7H5.4V0.5H11v14.3l-0.2,4.5h0.3c0.5-0.9,1.1-1.7,1.8-2.3
			c0.7-0.7,1.5-1.2,2.3-1.6c0.8-0.4,1.7-0.8,2.7-1c1-0.2,1.9-0.3,2.9-0.3c3.8,0,6.6,1,8.5,3c1.9,2,2.9,5.1,2.9,9.5v22.3H26.7z"/>
		<path d="M56.3,49.4c-2.3,0-4.4-0.4-6.2-1.1c-1.9-0.8-3.5-1.9-4.9-3.4c-1.4-1.5-2.4-3.3-3.2-5.5c-0.7-2.2-1.1-4.7-1.1-7.4
			c0-2.8,0.3-5.3,1-7.5c0.7-2.2,1.6-4.1,2.9-5.6c1.2-1.5,2.7-2.7,4.5-3.5c1.7-0.8,3.6-1.2,5.7-1.2c2,0,3.9,0.4,5.5,1.1
			c1.6,0.7,3,1.8,4.2,3.1s2,2.9,2.6,4.8c0.6,1.9,0.9,3.9,0.9,6.2v3.5H46.8c0.1,4,0.9,6.9,2.5,8.8c1.6,1.9,3.9,2.8,7.1,2.8
			c1.1,0,2-0.1,2.9-0.2s1.8-0.3,2.6-0.5c0.8-0.2,1.7-0.4,2.4-0.7c0.8-0.3,1.6-0.6,2.4-1v5c-0.8,0.4-1.6,0.7-2.4,1
			c-0.8,0.3-1.6,0.5-2.5,0.7c-0.8,0.2-1.7,0.3-2.6,0.4C58.3,49.4,57.4,49.4,56.3,49.4z M54.9,18.8c-2.4,0-4.2,0.8-5.6,2.4
			c-1.4,1.6-2.2,4-2.4,7h15.3c0-1.4-0.1-2.7-0.4-3.9s-0.7-2.2-1.3-3s-1.3-1.5-2.2-1.9S56.2,18.8,54.9,18.8z"/>
	</g>
</g>
</svg>
