<?xml version="1.0" encoding="utf-8"?>
<!-- Generator: Adobe Illustrator 18.1.1, SVG Export Plug-In . SVG Version: 6.00 Build 0)  -->
<!DOCTYPE svg PUBLIC "-//W3C//DTD SVG 1.1//EN" "http://www.w3.org/Graphics/SVG/1.1/DTD/svg11.dtd">
<svg version="1.1" xmlns="http://www.w3.org/2000/svg" xmlns:xlink="http://www.w3.org/1999/xlink" x="0px" y="0px"
	 viewBox="0 0 100.1 64" enable-background="new 0 0 100.1 64" xml:space="preserve">
<g id="she">
	<g>
		<path d="M25.8,39.4c0,1.7-0.3,3.1-0.9,4.3c-0.6,1.2-1.5,2.3-2.6,3.1c-1.1,0.8-2.5,1.5-4.1,1.9c-1.6,0.4-3.4,0.6-5.4,0.6
			c-2.3,0-4.2-0.2-5.8-0.5c-1.6-0.4-3-0.9-4.3-1.6v-5.2c0.6,0.3,1.4,0.7,2.1,1c0.8,0.3,1.6,0.6,2.5,0.9c0.9,0.2,1.8,0.5,2.7,0.6
			c0.9,0.2,1.8,0.2,2.7,0.2c1.3,0,2.5-0.1,3.4-0.3c0.9-0.2,1.7-0.6,2.3-1c0.6-0.4,1-0.9,1.3-1.6s0.4-1.3,0.4-2
			c0-0.6-0.1-1.2-0.3-1.7c-0.2-0.5-0.6-1-1.1-1.5c-0.5-0.5-1.3-1-2.2-1.5c-1-0.5-2.2-1.1-3.7-1.7c-1.5-0.6-2.8-1.3-4-1.9
			c-1.2-0.6-2.2-1.3-3-2.1S4.4,27.7,4,26.7c-0.4-1-0.7-2.2-0.7-3.6c0-1.4,0.3-2.7,0.9-3.9c0.6-1.1,1.4-2.1,2.4-2.8
			c1-0.8,2.3-1.3,3.7-1.7c1.4-0.4,3.1-0.6,4.8-0.6c2,0,3.8,0.2,5.5,0.7c1.7,0.4,3.2,1,4.7,1.7l-2,4.6c-1.3-0.6-2.7-1.1-4.1-1.6
			c-1.4-0.4-2.9-0.7-4.3-0.7c-2.1,0-3.7,0.3-4.7,1c-1,0.7-1.5,1.7-1.5,3c0,0.7,0.1,1.4,0.4,1.9c0.2,0.5,0.6,1,1.2,1.5
			c0.6,0.5,1.4,1,2.3,1.4c1,0.5,2.2,1,3.6,1.6c1.5,0.6,2.8,1.2,4,1.9c1.2,0.6,2.2,1.3,3,2.1c0.8,0.8,1.5,1.7,1.9,2.7
			S25.8,38,25.8,39.4z"/>
		<path d="M55.4,48.8V26.8c0-2.7-0.5-4.7-1.6-6.1c-1.1-1.3-2.8-2-5.1-2c-1.7,0-3.1,0.3-4.2,0.8c-1.1,0.5-2.1,1.3-2.7,2.4
			c-0.7,1.1-1.2,2.3-1.5,3.9c-0.3,1.5-0.5,3.3-0.5,5.3v17.7h-5.6V0.5h5.6v14.3l-0.2,4.5h0.3c0.5-0.9,1.1-1.7,1.8-2.3
			c0.7-0.7,1.5-1.2,2.3-1.6c0.8-0.4,1.7-0.8,2.7-1c1-0.2,1.9-0.3,2.9-0.3c3.8,0,6.6,1,8.6,3c1.9,2,2.9,5.1,2.9,9.5v22.3H55.4z"/>
		<path d="M85,49.4c-2.3,0-4.4-0.4-6.2-1.1c-1.9-0.8-3.5-1.9-4.9-3.4c-1.4-1.5-2.4-3.3-3.2-5.5c-0.7-2.2-1.1-4.7-1.1-7.4
			c0-2.8,0.3-5.3,1-7.5s1.6-4.1,2.9-5.6c1.2-1.5,2.7-2.7,4.5-3.5c1.7-0.8,3.6-1.2,5.7-1.2c2,0,3.9,0.4,5.5,1.1
			c1.6,0.7,3,1.8,4.2,3.1c1.1,1.3,2,2.9,2.6,4.8c0.6,1.9,0.9,3.9,0.9,6.2v3.5H75.4c0.1,4,0.9,6.9,2.5,8.8c1.6,1.9,3.9,2.8,7.1,2.8
			c1.1,0,2-0.1,2.9-0.2s1.8-0.3,2.6-0.5c0.8-0.2,1.6-0.4,2.4-0.7c0.8-0.3,1.6-0.6,2.4-1v5c-0.8,0.4-1.6,0.7-2.4,1
			c-0.8,0.3-1.6,0.5-2.5,0.7c-0.8,0.2-1.7,0.3-2.6,0.4C87,49.4,86,49.4,85,49.4z M83.6,18.8c-2.4,0-4.2,0.8-5.6,2.4
			c-1.4,1.6-2.2,4-2.4,7h15.3c0-1.4-0.1-2.7-0.4-3.9s-0.7-2.2-1.3-3s-1.3-1.5-2.2-1.9C86,19,84.9,18.8,83.6,18.8z"/>
	</g>
</g>
<g id="he">
</g>
</svg>
