<?xml version="1.0" encoding="utf-8"?>
<!-- Generator: Adobe Illustrator 18.1.1, SVG Export Plug-In . SVG Version: 6.00 Build 0)  -->
<!DOCTYPE svg PUBLIC "-//W3C//DTD SVG 1.1//EN" "http://www.w3.org/Graphics/SVG/1.1/DTD/svg11.dtd">
<svg version="1.1" xmlns="http://www.w3.org/2000/svg" xmlns:xlink="http://www.w3.org/1999/xlink" x="0px" y="0px"
	 viewBox="0 0 70.5 64" enable-background="new 0 0 70.5 64" xml:space="preserve">
<g id="Guides">
</g>
<g id="she">
</g>
<g id="seems">
</g>
<g id="u">
	<g>
		<path d="M44,48.8l-0.8-4.6h-0.3c-0.5,0.9-1.1,1.7-1.8,2.3c-0.7,0.7-1.5,1.2-2.3,1.6c-0.8,0.4-1.7,0.7-2.7,0.9
			c-1,0.2-1.9,0.3-2.9,0.3c-1.9,0-3.5-0.2-5-0.7c-1.4-0.5-2.6-1.2-3.6-2.2c-1-1-1.7-2.3-2.2-3.9c-0.5-1.6-0.7-3.4-0.7-5.6V14.7h5.6
			v21.9c0,2.7,0.5,4.7,1.6,6.1c1.1,1.3,2.8,2,5.1,2c1.7,0,3.1-0.3,4.2-0.8s2.1-1.3,2.7-2.4c0.7-1,1.2-2.3,1.5-3.9
			c0.3-1.5,0.5-3.3,0.5-5.3V14.7h5.6v34.1H44z"/>
	</g>
</g>
<g id="he">
</g>
</svg>
